<?xml version="1.0" standalone="no"?>
<!DOCTYPE svg PUBLIC "-//W3C//DTD SVG 20010904//EN"
 "http://www.w3.org/TR/2001/REC-SVG-20010904/DTD/svg10.dtd">
<svg version="1.0" xmlns="http://www.w3.org/2000/svg"
 width="900pt" height="900pt" viewBox="0 0 900 900"
 preserveAspectRatio="xMidYMid meet">
<g transform="translate(0.0,900) scale(0.1,-0.1)"
fill="#FFFFFF" stroke="none">
<path d="M3728 8003 c-12 -3 -18 -14 -18 -32 0 -23 16 -43 82 -102 122 -111
229 -224 300 -318 35 -47 79 -93 100 -105 37 -21 38 -21 70 -2 18 10 60 48 92
85 33 36 116 125 185 196 70 72 141 149 159 171 53 68 40 104 -38 104 -61 0
-123 -33 -226 -122 -196 -168 -221 -177 -279 -102 -19 26 -35 50 -35 54 0 10
-130 103 -170 121 -96 45 -178 64 -222 52z"/>
<path d="M5370 7914 c-92 -6 -302 -52 -368 -80 -18 -8 -39 -14 -46 -14 -14 0
-157 -61 -177 -76 -8 -5 -34 -20 -59 -34 -25 -13 -47 -26 -50 -29 -3 -3 -27
-23 -53 -45 -57 -45 -88 -93 -107 -159 -11 -42 -11 -50 2 -63 13 -14 19 -13
54 6 56 30 66 37 178 115 153 106 129 94 296 151 78 26 317 27 410 1 164 -46
213 -65 364 -144 270 -140 593 -293 617 -293 17 0 121 -84 171 -139 43 -47
146 -180 175 -226 37 -59 83 -170 83 -200 0 -58 -25 -42 -85 58 -74 120 -91
144 -147 210 -44 50 -101 87 -114 74 -9 -8 21 -99 64 -197 42 -94 62 -153 73
-210 4 -25 13 -61 18 -80 18 -58 14 -353 -5 -419 -36 -125 -63 -165 -106 -159
-21 3 -23 9 -29 83 -13 166 -82 342 -175 443 -46 50 -53 55 -60 38 -4 -11 -1
-40 6 -65 32 -110 48 -375 30 -503 -11 -87 -19 -117 -57 -225 -30 -86 -49 -63
-178 212 -91 193 -183 369 -226 433 -16 24 -29 45 -29 48 0 3 -26 40 -59 82
-79 105 -204 221 -275 255 -124 61 -285 84 -310 45 -14 -23 12 -50 143 -149
219 -166 326 -294 395 -474 26 -69 30 -105 11 -105 -15 0 -40 19 -154 116 -63
54 -159 124 -169 124 -5 0 -15 7 -22 15 -16 19 -70 20 -70 1 0 -7 7 -19 15
-26 8 -7 15 -17 15 -22 0 -5 26 -44 58 -86 71 -94 136 -201 186 -306 46 -97
66 -115 130 -116 106 0 167 -75 212 -260 14 -58 18 -116 18 -250 0 -159 -1
-179 -22 -223 -17 -39 -26 -48 -43 -45 -17 2 -26 16 -40 58 -10 30 -18 64 -18
75 -1 25 -33 118 -47 137 -5 7 -16 26 -24 43 -28 55 -170 188 -241 223 -145
72 -192 45 -99 -58 55 -60 138 -181 166 -240 46 -97 53 -114 69 -193 28 -134
13 -273 -40 -374 -49 -93 -73 -62 -81 105 -6 129 -31 227 -75 302 -5 8 -13 24
-18 35 -14 33 -99 123 -160 169 -62 47 -133 84 -171 88 -21 3 -26 -2 -28 -24
-3 -21 16 -53 85 -145 82 -109 126 -185 167 -288 18 -45 46 -197 41 -223 -2
-9 -9 -46 -16 -82 -26 -136 -128 -279 -153 -214 -3 9 -6 61 -6 117 0 159 -38
277 -90 277 -12 0 -24 -19 -39 -56 -11 -31 -21 -62 -21 -70 0 -8 -14 -44 -32
-81 -122 -259 -489 -403 -928 -363 -180 16 -271 41 -434 121 -120 60 -225 174
-257 282 -6 18 -14 69 -19 114 -10 97 -14 107 -40 93 -28 -15 -90 -167 -90
-221 0 -13 -7 -46 -15 -73 -8 -27 -15 -66 -15 -87 0 -96 -41 -35 -100 146 -14
42 -20 88 -20 156 0 182 68 333 219 489 75 77 106 123 96 140 -21 34 -148 -13
-253 -94 -141 -108 -215 -244 -258 -476 -10 -52 -22 -101 -27 -107 -28 -38
-57 8 -84 137 -29 141 -16 255 43 370 26 51 141 211 194 270 38 43 52 69 46
86 -9 23 -66 9 -146 -37 -8 -5 -22 -12 -30 -16 -23 -10 -92 -65 -123 -98 -104
-110 -152 -199 -162 -298 -9 -85 -23 -119 -48 -115 -39 6 -76 109 -92 254 -16
141 54 365 140 449 41 39 66 50 172 70 34 7 73 55 73 92 0 28 36 124 67 181
31 56 37 64 153 188 77 83 98 124 64 124 -56 0 -244 -117 -302 -188 -55 -67
-104 -113 -116 -109 -6 2 -12 22 -14 45 -10 137 271 476 482 581 130 65 147
97 61 121 -38 11 -59 11 -118 0 -196 -36 -374 -177 -535 -423 -55 -84 -192
-354 -192 -378 0 -8 -6 -23 -14 -34 -7 -11 -16 -31 -19 -45 -9 -45 -63 -185
-82 -213 -13 -21 -25 -27 -43 -25 -35 4 -62 45 -85 130 -28 103 -36 422 -13
521 32 137 17 193 -43 162 -17 -8 -31 -21 -31 -27 0 -6 -6 -19 -13 -27 -35
-42 -69 -166 -92 -336 -20 -147 -22 -152 -42 -159 -36 -14 -91 73 -135 214
-16 51 -20 91 -20 200 0 77 5 148 12 165 6 17 15 48 20 70 15 71 71 202 120
280 58 93 72 136 50 150 -38 23 -293 -248 -349 -370 -5 -11 -23 -36 -39 -55
-24 -28 -33 -32 -43 -23 -10 10 -9 19 3 45 112 235 157 312 230 388 43 45 200
170 214 170 4 0 15 6 23 14 9 7 43 28 76 47 33 18 78 43 100 56 22 12 47 26
55 29 8 4 56 26 105 49 119 57 188 88 255 115 30 12 69 28 85 35 50 22 107 42
170 60 33 10 77 24 98 31 20 8 52 14 70 14 18 0 48 5 67 10 90 27 324 6 440
-40 30 -12 64 -24 75 -27 11 -3 25 -9 30 -13 6 -4 46 -26 90 -50 44 -23 104
-60 133 -82 87 -64 124 -38 86 61 -24 63 -66 113 -144 171 -147 109 -330 177
-600 225 -112 20 -445 17 -545 -4 -72 -16 -127 -40 -122 -55 2 -6 34 -26 70
-45 67 -34 83 -57 55 -78 -19 -14 -154 -69 -218 -89 -30 -9 -71 -23 -90 -29
-19 -7 -64 -21 -100 -30 -36 -10 -85 -23 -110 -31 -190 -56 -351 -86 -524 -99
-88 -7 -111 -15 -118 -43 -9 -33 18 -78 96 -159 42 -43 76 -82 76 -86 0 -4
-24 -42 -53 -85 -79 -116 -108 -194 -127 -334 -18 -131 7 -329 57 -463 38
-101 48 -124 80 -190 19 -38 40 -79 47 -90 25 -42 69 -110 75 -115 3 -3 24
-27 46 -55 63 -80 202 -209 285 -266 67 -45 136 -104 167 -142 25 -29 33 -50
37 -95 15 -142 30 -231 48 -287 60 -181 175 -344 300 -426 51 -32 50 -61 -5
-135 -50 -69 -107 -153 -107 -159 0 -2 -13 -26 -28 -52 -15 -26 -43 -84 -61
-128 -18 -44 -38 -93 -45 -110 -17 -39 -36 -92 -46 -130 -5 -16 -18 -61 -30
-100 -23 -79 -35 -148 -50 -282 -11 -107 -31 -144 -160 -304 -151 -187 -195
-275 -254 -505 -12 -43 -16 -108 -16 -233 0 -170 6 -221 45 -357 25 -87 21
-112 -33 -175 -106 -123 -142 -185 -173 -289 -24 -82 -24 -147 0 -232 52 -182
183 -313 390 -393 210 -80 403 -87 661 -23 57 14 135 26 223 34 71 7 155 -6
212 -32 44 -20 138 -34 232 -34 87 0 264 24 294 41 10 5 25 9 35 9 19 0 190
82 249 119 61 39 75 47 153 85 40 20 79 36 87 36 35 0 198 -68 425 -178 63
-30 128 -59 145 -63 16 -4 44 -12 60 -17 174 -58 346 -57 491 3 83 35 310 27
449 -16 178 -54 439 -46 610 19 197 74 322 187 422 384 23 43 28 69 31 143 3
65 0 98 -11 120 -8 16 -20 43 -28 59 -14 28 -73 108 -173 235 -51 63 -79 124
-71 151 38 124 54 391 31 539 -9 58 -16 117 -16 132 0 94 -83 257 -240 469
-122 165 -146 218 -155 345 -9 136 -42 308 -73 385 -5 14 -18 45 -27 70 -60
155 -169 339 -282 478 -36 45 -41 56 -32 73 5 11 18 23 27 26 30 11 136 95
172 137 19 22 47 59 62 83 33 51 98 188 98 205 0 7 6 30 14 53 20 58 46 211
46 275 0 85 29 126 120 173 41 22 94 52 118 68 24 16 47 29 51 29 5 0 50 39
101 87 242 228 390 519 431 846 10 79 10 119 0 205 -19 156 -51 232 -141 339
-33 40 -57 78 -54 85 3 7 38 34 77 60 89 59 139 105 135 125 -6 30 -72 51
-208 68 -180 21 -285 43 -510 105 -190 53 -217 62 -370 119 -160 60 -193 88
-150 121 14 11 42 23 63 26 49 9 54 20 17 39 -78 40 -153 55 -305 59 -82 2
-175 2 -205 0z m277 -3584 c73 -86 151 -228 207 -377 43 -115 55 -151 89 -273
63 -225 85 -504 42 -540 -23 -19 -47 17 -100 150 -24 60 -82 178 -106 215 -10
17 -22 37 -26 45 -9 21 -61 89 -97 128 -37 40 -76 44 -76 7 0 -30 22 -112 49
-185 35 -92 91 -354 91 -422 0 -66 54 -237 81 -253 30 -19 -5 -257 -63 -430
-5 -16 -14 -43 -18 -60 -14 -50 -38 -111 -71 -180 -45 -96 -54 -78 -51 103 2
121 -1 156 -16 196 -10 27 -22 51 -28 53 -13 4 -44 -50 -44 -78 0 -23 -22
-107 -45 -169 -23 -62 -78 -195 -86 -205 -12 -17 -39 -98 -39 -120 0 -33 36
-83 82 -111 61 -38 143 -119 176 -173 16 -25 38 -77 48 -115 17 -66 17 -71 0
-140 -10 -39 -34 -94 -53 -123 -37 -57 -139 -163 -155 -163 -7 0 -8 16 -4 43
26 177 13 254 -54 307 -37 29 -115 46 -140 30 -15 -9 -10 -25 30 -85 20 -30
24 -38 42 -87 23 -62 -13 -133 -85 -170 -35 -17 -59 -21 -145 -20 -245 2 -521
147 -616 324 -34 63 -66 184 -66 250 0 77 35 233 77 343 24 64 102 231 123
265 5 8 43 74 85 145 41 72 80 137 85 145 5 8 21 38 35 65 14 28 30 57 35 65
9 14 47 97 79 175 63 148 88 321 60 415 -26 88 -111 176 -123 128 -2 -7 -9
-29 -16 -48 -6 -19 -21 -87 -31 -150 -20 -118 -23 -128 -80 -265 -95 -227
-272 -501 -371 -574 -56 -41 -77 -46 -140 -31 -140 33 -313 219 -432 465 -75
155 -100 232 -126 375 -24 135 -58 209 -97 210 -34 0 -59 -42 -73 -126 -22
-129 8 -301 85 -479 21 -49 111 -227 134 -265 11 -19 25 -44 31 -55 6 -11 18
-32 28 -47 38 -59 228 -369 239 -392 15 -28 37 -397 31 -502 -6 -87 -31 -134
-114 -216 -111 -109 -162 -138 -349 -198 -86 -28 -265 -28 -326 0 -75 34 -109
74 -108 125 0 28 9 49 67 154 12 23 20 46 17 51 -11 18 -96 11 -129 -9 -71
-45 -107 -137 -87 -226 13 -60 10 -75 -19 -75 -38 0 -135 127 -158 206 -33
113 1 236 95 351 31 38 145 129 198 159 40 22 40 38 -2 101 -45 67 -103 185
-103 208 0 8 -6 29 -14 47 -8 18 -22 62 -31 98 -22 84 -53 150 -70 150 -25 0
-33 -33 -40 -155 -8 -157 -13 -185 -31 -185 -8 0 -17 8 -20 18 -4 9 -19 44
-34 77 -113 247 -148 467 -95 598 31 76 65 232 65 300 0 84 44 310 74 382 46
109 51 149 20 153 -28 4 -94 -64 -158 -163 -77 -117 -102 -168 -131 -270 -22
-77 -46 -125 -62 -125 -60 0 -44 310 32 595 18 70 84 273 95 293 5 10 25 51
45 92 51 105 59 118 100 167 56 67 111 103 156 103 39 0 40 -1 141 -90 24 -22
134 -79 193 -100 28 -10 77 -22 110 -25 115 -12 177 -30 310 -90 167 -75 361
-115 555 -115 181 0 326 27 490 90 85 33 257 85 345 105 84 19 184 49 213 65
9 5 24 11 32 14 8 3 22 10 30 15 19 12 183 111 218 132 31 19 42 14 89 -41z
m-3334 -1285 c9 -20 17 -45 17 -55 0 -11 6 -46 14 -78 8 -31 22 -91 31 -132
26 -121 109 -387 126 -404 5 -6 9 -16 9 -24 0 -28 112 -238 140 -262 33 -29
120 -168 120 -192 0 -8 -18 -23 -41 -33 -69 -32 -109 -101 -135 -235 -25 -134
-13 -251 39 -360 54 -114 47 -140 -37 -140 -80 0 -290 43 -381 77 -152 58
-253 130 -309 221 -23 37 -27 55 -28 118 0 80 16 119 77 180 101 102 245 155
549 201 82 13 122 23 129 34 14 22 -9 65 -53 101 -34 26 -43 29 -150 33 -63 3
-157 11 -208 17 -83 10 -95 14 -117 40 -38 45 -45 90 -45 303 0 169 3 210 19
265 27 88 61 172 90 220 5 8 26 43 46 78 44 75 71 83 98 27z m3923 -17 c34
-40 96 -180 128 -288 19 -69 36 -613 19 -623 -6 -4 -91 -12 -189 -18 -185 -12
-279 -31 -342 -69 -34 -21 -41 -50 -18 -69 21 -17 150 -51 195 -51 43 0 224
-33 281 -52 157 -50 243 -132 286 -268 18 -59 18 -106 -2 -164 -17 -49 -85
-128 -127 -147 -12 -6 -38 -19 -57 -29 -37 -20 -127 -49 -225 -73 -125 -31
-391 -58 -407 -41 -4 3 14 46 39 95 71 139 85 235 59 379 -23 126 -57 197
-123 256 -12 12 -23 28 -23 35 0 15 25 89 39 117 5 9 26 51 46 92 21 41 41 81
46 90 32 61 115 246 129 290 5 14 18 50 30 80 23 61 52 148 74 225 58 199 82
255 109 255 7 0 22 -10 33 -22z"/>
<path d="M3095 7550 c-113 -11 -243 -36 -290 -56 -44 -18 -178 -148 -172 -167
8 -25 65 -18 143 19 99 46 214 97 286 128 20 9 44 16 55 16 23 0 96 41 97 55
1 13 -22 14 -119 5z"/>
<path d="M5305 7541 c-7 -12 42 -36 135 -67 41 -14 135 -54 208 -90 147 -72
185 -81 190 -48 4 25 -94 126 -153 157 -72 38 -363 75 -380 48z"/>
<path d="M3300 7334 c-14 -2 -56 -9 -95 -15 -77 -12 -115 -25 -220 -76 -87
-42 -92 -45 -186 -115 -154 -114 -253 -252 -265 -365 -11 -107 17 -101 176 37
102 88 218 173 326 238 163 97 262 139 362 153 89 12 141 30 158 53 12 18 11
22 -6 41 -30 32 -177 61 -250 49z"/>
<path d="M4961 7315 c-30 -8 -61 -20 -69 -29 -14 -14 -14 -18 6 -38 25 -28 81
-45 177 -57 134 -17 281 -89 520 -255 33 -23 177 -137 185 -147 3 -3 28 -22
56 -41 100 -70 136 -79 149 -38 8 26 -64 173 -124 252 -88 116 -231 220 -406
293 -159 67 -363 91 -494 60z"/>
<path d="M3350 6245 c-14 -8 -30 -14 -37 -15 -18 0 -126 -67 -172 -107 -24
-20 -54 -54 -68 -76 -24 -39 -25 -41 -7 -54 13 -9 36 -11 79 -7 59 6 62 5 87
-24 18 -22 27 -46 31 -91 8 -71 23 -105 67 -148 92 -90 314 -54 409 66 80 101
58 284 -49 391 -60 60 -116 80 -224 80 -60 -1 -100 -6 -116 -15z m195 -161
c22 -20 26 -31 21 -54 -8 -44 -40 -70 -85 -70 -30 0 -42 5 -55 25 -55 83 45
167 119 99z"/>
<path d="M4839 6240 c-42 -22 -87 -71 -137 -149 -34 -52 -36 -62 -36 -131 0
-89 19 -126 108 -208 73 -66 131 -92 207 -92 101 0 176 65 213 186 36 116 54
134 139 134 102 0 112 35 31 114 -53 52 -181 136 -209 136 -7 0 -29 7 -48 15
-55 23 -221 20 -268 -5z m181 -150 c36 -19 40 -24 40 -59 0 -31 -6 -44 -31
-65 -17 -14 -37 -26 -46 -26 -25 0 -73 56 -73 85 0 24 47 85 65 85 3 0 24 -9
45 -20z"/>
<path d="M4175 5576 c-135 -38 -225 -118 -225 -201 0 -52 51 -147 122 -229 34
-39 68 -76 76 -83 23 -20 9 -45 -52 -95 -66 -53 -128 -75 -234 -85 -91 -8
-122 -27 -122 -73 0 -117 237 -147 437 -54 28 13 61 24 72 24 12 0 47 -17 79
-38 129 -86 294 -82 376 8 48 54 48 78 -4 113 -18 13 -46 17 -108 17 -57 0
-96 5 -120 17 -34 15 -162 129 -162 144 0 3 36 44 80 90 102 106 130 159 130
242 -1 46 -7 73 -24 102 -53 93 -192 137 -321 101z m127 -118 c110 -33 35
-121 -87 -102 -57 8 -83 35 -66 67 22 42 84 56 153 35z"/>
<path d="M6294 4235 c-3 -8 7 -47 23 -87 28 -71 80 -232 108 -333 33 -123 75
-386 75 -466 0 -43 36 -187 51 -205 54 -65 87 109 88 462 1 248 4 258 67 191
70 -73 122 -162 167 -282 8 -22 21 -58 30 -80 36 -97 68 -282 69 -401 1 -80
-9 -140 -38 -241 -27 -92 12 -101 80 -18 50 62 76 112 102 200 28 93 25 403
-4 500 -30 99 -47 144 -60 157 -7 7 -12 16 -12 21 0 18 -99 136 -189 226 -248
245 -531 426 -557 356z"/>
<path d="M7362 3290 c-12 -16 -22 -32 -22 -36 0 -3 -6 -20 -13 -37 -14 -32
-28 -78 -61 -192 -10 -33 -24 -73 -31 -90 -7 -16 -21 -50 -31 -75 -24 -58 -47
-99 -112 -203 -55 -90 -73 -158 -42 -164 35 -8 215 143 283 237 78 108 128
254 126 373 -1 83 -28 186 -55 203 -18 13 -22 11 -42 -16z"/>
<path d="M7395 2544 c-22 -13 -47 -27 -55 -31 -29 -14 -107 -68 -256 -180
-153 -114 -249 -204 -241 -226 5 -17 133 -14 177 4 102 41 267 154 355 243 82
83 152 186 140 206 -11 18 -79 9 -120 -16z"/>
</g>
</svg>