<?xml version="1.0" standalone="no"?>
<!DOCTYPE svg PUBLIC "-//W3C//DTD SVG 20010904//EN"
 "http://www.w3.org/TR/2001/REC-SVG-20010904/DTD/svg10.dtd">
<svg version="1.0" xmlns="http://www.w3.org/2000/svg"
 width="300pt" height="150pt" viewBox="0 0 300 150"
 preserveAspectRatio="xMidYMid meet">
<g transform="translate(0,150) scale(0.05,-0.05)"
fill="#FFF" stroke="none">
<path d="M0 1503 l0 -1183 309 0 c380 0 351 -35 351 429 l0 351 249 0 c721 0
1022 230 1021 780 -1 363 -96 532 -376 669 -201 99 -280 109 -956 124 l-598
13 0 -1183z m1080 612 c92 -46 151 -202 118 -310 -46 -147 -101 -175 -344
-175 l-204 0 -6 255 -5 255 195 0 c115 0 217 -11 246 -25z"/>
<path d="M2295 2657 c-33 -25 -35 -99 -30 -1177 l5 -1150 297 -6 c390 -7 353
-67 353 570 0 323 7 527 19 523 10 -4 181 -252 379 -552 l361 -545 275 0 c152
0 287 8 301 17 20 12 24 259 20 1164 l-5 1149 -248 18 c-145 10 -277 10 -320
0 l-72 -18 -5 -575 c-3 -316 -12 -575 -20 -575 -8 0 -171 252 -361 559 -191
307 -358 567 -371 579 -42 34 -537 51 -578 19z"/>
<path d="M5440 2666 c-73 -29 -880 -671 -880 -701 0 -56 279 -405 324 -405 21
0 132 72 246 160 114 88 216 160 228 160 15 0 23 -240 27 -775 l5 -775 305 -6
305 -5 -5 1175 -5 1176 -260 4 c-143 2 -273 -2 -290 -8z"/>
</g>
</svg>
